<?xml version="1.0" encoding="utf-8"?>
<svg xmlns="http://www.w3.org/2000/svg" xmlns:xlink="http://www.w3.org/1999/xlink">
  <symbol fill="currentColor" class="bi bi-logo" viewBox="0 0 16 16" id="logo" xmlns="http://www.w3.org/2000/svg">
    <path d="M11.251.068a.5.5 0 0 1 .227.58L9.677 6.5H13a.5.5 0 0 1 .364.843l-8 8.5a.5.5 0 0 1-.842-.49L6.323 9.5H3a.5.5 0 0 1-.364-.843l8-8.5a.5.5 0 0 1 .615-.09zM4.157 8.5H7a.5.5 0 0 1 .478.647L6.11 13.59l5.732-6.09H9a.5.5 0 0 1-.478-.647L9.89 2.41 4.157 8.5z"/>
  </symbol>
  <symbol fill="currentColor" class="bi bi-locations" viewBox="0 0 16 16" id="locations" xmlns="http://www.w3.org/2000/svg">
    <path d="M12.166 8.94c-.524 1.062-1.234 2.12-1.96 3.07A31.493 31.493 0 0 1 8 14.58a31.481 31.481 0 0 1-2.206-2.57c-.726-.95-1.436-2.008-1.96-3.07C3.304 7.867 3 6.862 3 6a5 5 0 0 1 10 0c0 .862-.305 1.867-.834 2.94zM8 16s6-5.686 6-10A6 6 0 0 0 2 6c0 4.314 6 10 6 10z"/>
    <path d="M8 8a2 2 0 1 1 0-4 2 2 0 0 1 0 4zm0 1a3 3 0 1 0 0-6 3 3 0 0 0 0 6z"/>
  </symbol>
  <symbol fill="currentColor" class="bi bi-usage" viewBox="0 0 16 16" id="usage" xmlns="http://www.w3.org/2000/svg">
    <path fill-rule="evenodd" d="M0 0h1v15h15v1H0V0zm10 3.5a.5.5 0 0 1 .5-.5h4a.5.5 0 0 1 .5.5v4a.5.5 0 0 1-1 0V4.9l-3.613 4.417a.5.5 0 0 1-.74.037L7.06 6.767l-3.656 5.027a.5.5 0 0 1-.808-.588l4-5.5a.5.5 0 0 1 .758-.06l2.609 2.61L13.445 4H10.5a.5.5 0 0 1-.5-.5z"/>
  </symbol>
  <symbol fill="currentColor" class="bi bi-settings" viewBox="0 0 16 16" id="settings" xmlns="http://www.w3.org/2000/svg">
    <path d="M8 4.754a3.246 3.246 0 1 0 0 6.492 3.246 3.246 0 0 0 0-6.492zM5.754 8a2.246 2.246 0 1 1 4.492 0 2.246 2.246 0 0 1-4.492 0z"/>
    <path d="M9.796 1.343c-.527-1.79-3.065-1.79-3.592 0l-.094.319a.873.873 0 0 1-1.255.52l-.292-.16c-1.64-.892-3.433.902-2.54 2.541l.159.292a.873.873 0 0 1-.52 1.255l-.319.094c-1.79.527-1.79 3.065 0 3.592l.319.094a.873.873 0 0 1 .52 1.255l-.16.292c-.892 1.64.901 3.434 2.541 2.54l.292-.159a.873.873 0 0 1 1.255.52l.094.319c.527 1.79 3.065 1.79 3.592 0l.094-.319a.873.873 0 0 1 1.255-.52l.292.16c1.64.893 3.434-.902 2.54-2.541l-.159-.292a.873.873 0 0 1 .52-1.255l.319-.094c1.79-.527 1.79-3.065 0-3.592l-.319-.094a.873.873 0 0 1-.52-1.255l.16-.292c.893-1.64-.902-3.433-2.541-2.54l-.292.159a.873.873 0 0 1-1.255-.52l-.094-.319zm-2.633.283c.246-.835 1.428-.835 1.674 0l.094.319a1.873 1.873 0 0 0 2.693 1.115l.291-.16c.764-.415 1.6.42 1.184 1.185l-.159.292a1.873 1.873 0 0 0 1.116 2.692l.318.094c.835.246.835 1.428 0 1.674l-.319.094a1.873 1.873 0 0 0-1.115 2.693l.16.291c.415.764-.42 1.6-1.185 1.184l-.291-.159a1.873 1.873 0 0 0-2.693 1.116l-.094.318c-.246.835-1.428.835-1.674 0l-.094-.319a1.873 1.873 0 0 0-2.692-1.115l-.292.16c-.764.415-1.6-.42-1.184-1.185l.159-.291A1.873 1.873 0 0 0 1.945 8.93l-.319-.094c-.835-.246-.835-1.428 0-1.674l.319-.094A1.873 1.873 0 0 0 3.06 4.377l-.16-.292c-.415-.764.42-1.6 1.185-1.184l.292.159a1.873 1.873 0 0 0 2.692-1.115l.094-.319z"/>
  </symbol>

  <symbol fill="currentColor" class="bi bi-electric" viewBox="0 0 16 16" id="electric" xmlns="http://www.w3.org/2000/svg">
    <path d="M11.251.068a.5.5 0 0 1 .227.58L9.677 6.5H13a.5.5 0 0 1 .364.843l-8 8.5a.5.5 0 0 1-.842-.49L6.323 9.5H3a.5.5 0 0 1-.364-.843l8-8.5a.5.5 0 0 1 .615-.09zM4.157 8.5H7a.5.5 0 0 1 .478.647L6.11 13.59l5.732-6.09H9a.5.5 0 0 1-.478-.647L9.89 2.41 4.157 8.5z"/>
  </symbol>
  <symbol fill="currentColor" class="bi bi-gas" viewBox="0 0 384 512" id="gas" xmlns="http://www.w3.org/2000/svg">
    <path d="M192 0C86.2 93.5 0 214.4 0 298.1 0 424 79 512 192 512s192-88 192-213.9c0-84-87.3-205.6-192-298.1zm0 65.2c51.4 51.1 144 158.5 144 232.9 0 29.5-5.6 55.6-15.1 78.4-3.5-74.7-83.7-157.9-128.9-208.8-45.8 51.5-125.4 133.8-128.9 208.8-9.4-22.8-15.1-49-15.1-78.4 0-74.2 92.6-181.7 144-232.9zm-18.1 397c-38.1-7.5-63.4-38.7-63.4-81.1 0-20.6 13.5-64.6 81.5-141.1 68 76.5 81.5 120.5 81.5 141.1 0 42.4-25.3 73.7-63.4 81.1-20.9 2.4-15.4 2.4-36.2 0z"/>
  </symbol>
  <symbol fill="currentColor" class="bi bi-water" viewBox="0 0 16 16" id="water" xmlns="http://www.w3.org/2000/svg">
    <path fill-rule="evenodd" d="M7.21.8C7.69.295 8 0 8 0c.109.363.234.708.371 1.038.812 1.946 2.073 3.35 3.197 4.6C12.878 7.096 14 8.345 14 10a6 6 0 0 1-12 0C2 6.668 5.58 2.517 7.21.8zm.413 1.021A31.25 31.25 0 0 0 5.794 3.99c-.726.95-1.436 2.008-1.96 3.07C3.304 8.133 3 9.138 3 10a5 5 0 0 0 10 0c0-1.201-.796-2.157-2.181-3.7l-.03-.032C9.75 5.11 8.5 3.72 7.623 1.82z"/>
    <path fill-rule="evenodd" d="M4.553 7.776c.82-1.641 1.717-2.753 2.093-3.13l.708.708c-.29.29-1.128 1.311-1.907 2.87l-.894-.448z"/>
  </symbol>
  <symbol fill="currentColor" class="bi bi-refuse" viewBox="0 0 16 16" id="refuse" xmlns="http://www.w3.org/2000/svg">
    <path d="M5.5 5.5A.5.5 0 0 1 6 6v6a.5.5 0 0 1-1 0V6a.5.5 0 0 1 .5-.5zm2.5 0a.5.5 0 0 1 .5.5v6a.5.5 0 0 1-1 0V6a.5.5 0 0 1 .5-.5zm3 .5a.5.5 0 0 0-1 0v6a.5.5 0 0 0 1 0V6z"/>
    <path fill-rule="evenodd" d="M14.5 3a1 1 0 0 1-1 1H13v9a2 2 0 0 1-2 2H5a2 2 0 0 1-2-2V4h-.5a1 1 0 0 1-1-1V2a1 1 0 0 1 1-1H6a1 1 0 0 1 1-1h2a1 1 0 0 1 1 1h3.5a1 1 0 0 1 1 1v1zM4.118 4L4 4.059V13a1 1 0 0 0 1 1h6a1 1 0 0 0 1-1V4.059L11.882 4H4.118zM2.5 3V2h11v1h-11z"/>
  </symbol>

  <symbol fill="currentColor" class="bi bi-hidden" viewBox="0 0 16 16" id="hidden" xmlns="http://www.w3.org/2000/svg">
    <path d="M13.359 11.238C15.06 9.72 16 8 16 8s-3-5.5-8-5.5a7.028 7.028 0 0 0-2.79.588l.77.771A5.944 5.944 0 0 1 8 3.5c2.12 0 3.879 1.168 5.168 2.457A13.134 13.134 0 0 1 14.828 8c-.058.087-.122.183-.195.288-.335.48-.83 1.12-1.465 1.755-.165.165-.337.328-.517.486l.708.709z"/>
    <path d="M11.297 9.176a3.5 3.5 0 0 0-4.474-4.474l.823.823a2.5 2.5 0 0 1 2.829 2.829l.822.822zm-2.943 1.299l.822.822a3.5 3.5 0 0 1-4.474-4.474l.823.823a2.5 2.5 0 0 0 2.829 2.829z"/>
    <path d="M3.35 5.47c-.18.16-.353.322-.518.487A13.134 13.134 0 0 0 1.172 8l.195.288c.335.48.83 1.12 1.465 1.755C4.121 11.332 5.881 12.5 8 12.5c.716 0 1.39-.133 2.02-.36l.77.772A7.029 7.029 0 0 1 8 13.5C3 13.5 0 8 0 8s.939-1.721 2.641-3.238l.708.709zm10.296 8.884l-12-12 .708-.708 12 12-.708.708z"/>
  </symbol>

  <symbol fill="currentColor" class="bi bi-users-class" viewBox="0 0 640 512" id="users-class" xmlns="http://www.w3.org/2000/svg">
    <path d="M80 48h480v133.62c17.64 2.56 34.01 8.91 48 18.71V49.59C608 22.25 586.47 0 560 0H80C53.53 0 32 22.25 32 49.59v150.73c13.99-9.8 30.36-16.15 48-18.71V48zm28 356H84c-46.31 0-84 37.69-84 84 0 13.25 10.75 24 24 24s24-10.75 24-24c0-19.84 16.16-36 36-36h24c19.84 0 36 16.16 36 36 0 13.25 10.75 24 24 24s24-10.75 24-24c0-46.31-37.69-84-84-84zm436-192c-44.18 0-80 35.82-80 80s35.82 80 80 80 80-35.82 80-80-35.82-80-80-80zm0 112c-17.64 0-32-14.36-32-32s14.36-32 32-32 32 14.36 32 32-14.36 32-32 32zm12 80h-24c-46.31 0-84 37.69-84 84 0 13.25 10.75 24 24 24s24-10.75 24-24c0-19.84 16.16-36 36-36h24c19.84 0 36 16.16 36 36 0 13.25 10.75 24 24 24s24-10.75 24-24c0-46.31-37.69-84-84-84zM96 372c44.18 0 80-35.82 80-80s-35.82-80-80-80-80 35.82-80 80 35.82 80 80 80zm0-112c17.64 0 32 14.36 32 32s-14.36 32-32 32-32-14.36-32-32 14.36-32 32-32zm144 32c0 44.18 35.82 80 80 80s80-35.82 80-80-35.82-80-80-80-80 35.82-80 80zm112 0c0 17.64-14.36 32-32 32s-32-14.36-32-32 14.36-32 32-32 32 14.36 32 32zm-20 112h-24c-46.31 0-84 37.69-84 84 0 13.25 10.75 24 24 24s24-10.75 24-24c0-19.84 16.16-36 36-36h24c19.84 0 36 16.16 36 36 0 13.25 10.75 24 24 24s24-10.75 24-24c0-46.31-37.69-84-84-84z"/>
  </symbol>
  <symbol fill="currentColor" class="bi bi-add" viewBox="0 0 16 16" id="add" xmlns="http://www.w3.org/2000/svg">
    <path d="M14 1a1 1 0 0 1 1 1v12a1 1 0 0 1-1 1H2a1 1 0 0 1-1-1V2a1 1 0 0 1 1-1h12zM2 0a2 2 0 0 0-2 2v12a2 2 0 0 0 2 2h12a2 2 0 0 0 2-2V2a2 2 0 0 0-2-2H2z"/>
    <path d="M8 4a.5.5 0 0 1 .5.5v3h3a.5.5 0 0 1 0 1h-3v3a.5.5 0 0 1-1 0v-3h-3a.5.5 0 0 1 0-1h3v-3A.5.5 0 0 1 8 4z"/>
  </symbol>
  <symbol fill="currentColor" class="bi bi-edit" viewBox="0 0 16 16" id="edit" xmlns="http://www.w3.org/2000/svg">
    <path d="M15.502 1.94a.5.5 0 0 1 0 .706L14.459 3.69l-2-2L13.502.646a.5.5 0 0 1 .707 0l1.293 1.293zm-1.75 2.456l-2-2L4.939 9.21a.5.5 0 0 0-.121.196l-.805 2.414a.25.25 0 0 0 .316.316l2.414-.805a.5.5 0 0 0 .196-.12l6.813-6.814z"/>
    <path fill-rule="evenodd" d="M1 13.5A1.5 1.5 0 0 0 2.5 15h11a1.5 1.5 0 0 0 1.5-1.5v-6a.5.5 0 0 0-1 0v6a.5.5 0 0 1-.5.5h-11a.5.5 0 0 1-.5-.5v-11a.5.5 0 0 1 .5-.5H9a.5.5 0 0 0 0-1H2.5A1.5 1.5 0 0 0 1 2.5v11z"/>
  </symbol>

  <symbol fill="currentColor" class="bi bi-delete" viewBox="0 0 16 16" id="delete" xmlns="http://www.w3.org/2000/svg">
    <path d="M8 15A7 7 0 1 1 8 1a7 7 0 0 1 0 14zm0 1A8 8 0 1 0 8 0a8 8 0 0 0 0 16z"/>
    <path d="M4.646 4.646a.5.5 0 0 1 .708 0L8 7.293l2.646-2.647a.5.5 0 0 1 .708.708L8.707 8l2.647 2.646a.5.5 0 0 1-.708.708L8 8.707l-2.646 2.647a.5.5 0 0 1-.708-.708L7.293 8 4.646 5.354a.5.5 0 0 1 0-.708z"/>
  </symbol>

</svg>
